# xmcd
#
# Track frame offsets:
#	182
#	23060
#	45057
#	72577
#	104810
#	129655
#	225092
#	243945
#	269845
#
# Disc length: 4283 seconds
#
# Revision: 1
# Processed by: cddbd v1.5.1PL0 Copyright (c) Steve Scherf et al.
# Submitted via: CDex 1.50Beta5
#
DISCID=7610b909
DTITLE=さだまさし - LIVE 二千一夜 Disc 2
DYEAR=1993
DGENRE=
TTITLE0=トーク3その2
TTITLE1=最終案内
TTITLE2=虹の木
TTITLE3=トーク4
TTITLE4=二千一夜
TTITLE5=トーク5
TTITLE6=遍路
TTITLE7=吾亦紅
TTITLE8=トーク6その1
EXTD=
EXTT0=
EXTT1=
EXTT2=
EXTT3=
EXTT4=
EXTT5=
EXTT6=
EXTT7=
EXTT8=
PLAYORDER=
